<svg xmlns="http://www.w3.org/2000/svg" version="1.1" width="103" height="196">
<path d="M 2.363281 45.525879 L 5.500000 45.525879 L 5.500000 46.299316 L 3.142090 46.299316 L 3.142090 51.944336 L 2.363281 51.944336 Z " fill="rgb(0, 0, 0)" fill-opacity="1.000000" />
<path d="M 3.142090 64.944336 L 2.363281 64.944336 L 2.363281 52.880859 L 3.142090 52.880859 Z " fill="rgb(0, 0, 0)" fill-opacity="1.000000" />
<path d="M 2.363281 65.880859 L 3.142090 65.880859 L 3.142090 71.525879 L 5.500000 71.525879 L 5.500000 72.299316 L 2.363281 72.299316 Z " fill="rgb(0, 0, 0)" fill-opacity="1.000000" />
<path d="M 2.363281 123.525879 L 5.500000 123.525879 L 5.500000 124.299316 L 3.142090 124.299316 L 3.142090 129.944336 L 2.363281 129.944336 Z " fill="rgb(0, 0, 0)" fill-opacity="1.000000" />
<path d="M 3.142090 142.944336 L 2.363281 142.944336 L 2.363281 130.880859 L 3.142090 130.880859 Z " fill="rgb(0, 0, 0)" fill-opacity="1.000000" />
<path d="M 2.363281 143.880859 L 3.142090 143.880859 L 3.142090 149.525879 L 5.500000 149.525879 L 5.500000 150.299316 L 2.363281 150.299316 Z " fill="rgb(0, 0, 0)" fill-opacity="1.000000" />
<path d="M 18.735840 177.513184 L 18.735840 174.279785 Q 18.735840 172.931641 19.297119 172.308594 Q 19.858398 171.685547 20.750000 171.685547 Q 21.641602 171.685547 22.202881 172.308594 Q 22.764160 172.931641 22.764160 174.279785 L 22.764160 177.513184 Q 22.764160 178.855957 22.202881 179.479004 Q 21.641602 180.102051 20.750000 180.102051 Q 19.858398 180.096680 19.297119 179.476318 Q 18.735840 178.855957 18.735840 177.513184 Z M 19.654297 177.513184 Q 19.654297 178.528320 19.941650 178.901611 Q 20.229004 179.274902 20.744629 179.274902 Q 21.260254 179.274902 21.552979 178.898926 Q 21.845703 178.522949 21.845703 177.513184 L 21.845703 174.279785 Q 21.845703 173.270020 21.552979 172.894043 Q 21.260254 172.518066 20.744629 172.518066 Q 20.229004 172.518066 19.941650 172.891357 Q 19.654297 173.264648 19.654297 174.279785 Z " fill="rgb(0, 0, 0)" fill-opacity="1.000000" />
<path d="M 28.721191 180.000000 L 27.808105 180.000000 L 27.808105 179.210449 Q 27.222656 180.102051 26.390137 180.102051 Q 25.713379 180.102051 25.246094 179.591797 Q 24.778809 179.081543 24.778809 177.760254 L 24.778809 173.919922 L 25.691895 173.919922 L 25.691895 177.760254 Q 25.691895 178.646484 25.938965 178.960693 Q 26.186035 179.274902 26.615723 179.274902 Q 27.518066 179.274902 27.808105 178.087891 L 27.808105 173.919922 L 28.721191 173.919922 Z " fill="rgb(0, 0, 0)" fill-opacity="1.000000" />
<path d="M 35.086426 179.151367 Q 34.447266 180.102051 33.378418 180.102051 Q 32.669434 180.102051 32.188721 179.621338 Q 31.708008 179.140625 31.708008 178.200684 L 31.708008 174.698730 L 30.687500 174.698730 L 30.687500 173.919922 L 31.708008 173.919922 L 31.708008 171.803711 L 32.621094 171.803711 L 32.621094 173.919922 L 34.672852 173.919922 L 34.672852 174.698730 L 32.621094 174.698730 L 32.621094 178.259766 Q 32.621094 178.759277 32.835938 179.017090 Q 33.050781 179.274902 33.432129 179.274902 Q 34.065918 179.274902 34.393555 178.646484 Z " fill="rgb(0, 0, 0)" fill-opacity="1.000000" />
<path d="M 40.876953 177.384277 Q 40.876953 178.823730 40.329102 179.462891 Q 39.781250 180.102051 39.109863 180.102051 Q 38.175293 180.102051 37.697266 179.253418 L 37.697266 181.895996 L 36.784180 181.895996 L 36.784180 173.919922 L 37.697266 173.919922 L 37.697266 174.639648 Q 38.175293 173.807129 39.109863 173.807129 Q 39.781250 173.807129 40.329102 174.440918 Q 40.876953 175.074707 40.876953 176.541016 Z M 39.937012 176.541016 Q 39.937012 175.472168 39.641602 175.053223 Q 39.346191 174.634277 38.884277 174.634277 Q 37.981934 174.634277 37.697266 175.885742 L 37.697266 178.018066 Q 37.976562 179.274902 38.884277 179.274902 Q 39.346191 179.274902 39.641602 178.853271 Q 39.937012 178.431641 39.937012 177.384277 Z " fill="rgb(0, 0, 0)" fill-opacity="1.000000" />
<path d="M 46.721191 180.000000 L 45.808105 180.000000 L 45.808105 179.210449 Q 45.222656 180.102051 44.390137 180.102051 Q 43.713379 180.102051 43.246094 179.591797 Q 42.778809 179.081543 42.778809 177.760254 L 42.778809 173.919922 L 43.691895 173.919922 L 43.691895 177.760254 Q 43.691895 178.646484 43.938965 178.960693 Q 44.186035 179.274902 44.615723 179.274902 Q 45.518066 179.274902 45.808105 178.087891 L 45.808105 173.919922 L 46.721191 173.919922 Z " fill="rgb(0, 0, 0)" fill-opacity="1.000000" />
<path d="M 53.086426 179.151367 Q 52.447266 180.102051 51.378418 180.102051 Q 50.669434 180.102051 50.188721 179.621338 Q 49.708008 179.140625 49.708008 178.200684 L 49.708008 174.698730 L 48.687500 174.698730 L 48.687500 173.919922 L 49.708008 173.919922 L 49.708008 171.803711 L 50.621094 171.803711 L 50.621094 173.919922 L 52.672852 173.919922 L 52.672852 174.698730 L 50.621094 174.698730 L 50.621094 178.259766 Q 50.621094 178.759277 50.835938 179.017090 Q 51.050781 179.274902 51.432129 179.274902 Q 52.065918 179.274902 52.393555 178.646484 Z " fill="rgb(0, 0, 0)" fill-opacity="1.000000" />
<path d="M 63.276367 180.000000 L 62.223633 180.000000 L 61.170898 176.820312 Q 60.628418 175.187500 60.574707 174.354980 L 60.547852 173.919922 L 61.460938 173.919922 L 61.487793 174.354980 Q 61.536133 175.144531 62.008789 176.691406 L 62.750000 179.140625 L 63.491211 176.691406 Q 63.963867 175.144531 64.012207 174.354980 L 64.039062 173.919922 L 64.952148 173.919922 L 64.925293 174.354980 Q 64.871582 175.187500 64.329102 176.820312 Z " fill="rgb(0, 0, 0)" fill-opacity="1.000000" />
<path d="M 69.335449 171.857422 Q 69.335449 172.147461 69.134033 172.354248 Q 68.932617 172.561035 68.631836 172.561035 Q 68.331055 172.561035 68.129639 172.354248 Q 67.928223 172.147461 67.928223 171.857422 Q 67.928223 171.567383 68.129639 171.360596 Q 68.331055 171.153809 68.631836 171.153809 Q 68.932617 171.153809 69.134033 171.360596 Q 69.335449 171.567383 69.335449 171.857422 Z M 70.715820 180.000000 L 66.880859 180.000000 L 66.880859 179.221191 L 68.341797 179.221191 L 68.341797 174.698730 L 67.294434 174.698730 L 67.294434 173.919922 L 69.260254 173.919922 L 69.260254 179.221191 L 70.715820 179.221191 Z " fill="rgb(0, 0, 0)" fill-opacity="1.000000" />
<path d="M 76.796387 177.142578 L 73.611328 177.142578 L 73.611328 177.325195 Q 73.611328 178.501465 73.957764 178.888184 Q 74.304199 179.274902 74.889648 179.274902 Q 75.641602 179.274902 76.087402 178.517578 L 76.828613 178.990234 Q 76.130371 180.102051 74.830566 180.102051 Q 73.901367 180.102051 73.299805 179.436035 Q 72.698242 178.770020 72.698242 177.325195 L 72.698242 176.589355 Q 72.698242 175.144531 73.299805 174.475830 Q 73.901367 173.807129 74.750000 173.807129 Q 75.652344 173.807129 76.224365 174.424805 Q 76.796387 175.042480 76.796387 176.433594 Z M 75.883301 176.336914 Q 75.883301 175.407715 75.563721 175.020996 Q 75.244141 174.634277 74.750000 174.634277 Q 74.277344 174.634277 73.944336 175.020996 Q 73.611328 175.407715 73.611328 176.336914 Z " fill="rgb(0, 0, 0)" fill-opacity="1.000000" />
<path d="M 81.765137 179.495117 L 81.979980 177.523926 Q 82.114258 176.293945 82.114258 175.004883 L 82.114258 173.919922 L 83.005859 173.919922 L 83.005859 174.725586 Q 83.005859 175.826660 82.694336 177.523926 L 82.243164 180.000000 L 81.383789 180.000000 L 80.750000 177.260742 L 80.116211 180.000000 L 79.256836 180.000000 L 78.805664 177.523926 Q 78.494141 175.826660 78.494141 174.725586 L 78.494141 173.919922 L 79.385742 173.919922 L 79.385742 175.004883 Q 79.385742 176.293945 79.520020 177.523926 L 79.734863 179.495117 L 80.459961 176.369141 L 81.040039 176.369141 Z " fill="rgb(0, 0, 0)" fill-opacity="1.000000" />
<path d="M 47.897949 160.748047 L 53.602051 160.748047 L 50.750000 167.075195 Z " fill="rgb(0, 0, 0)" fill-opacity="1.000000" />
<path d="M 5.897949 150.299316 L 5.897949 149.525879 L 11.602051 149.525879 L 11.602051 150.299316 Z " fill="rgb(0, 0, 0)" fill-opacity="1.000000" />
<path d="M 11.897949 150.299316 L 11.897949 149.525879 L 17.602051 149.525879 L 17.602051 150.299316 Z " fill="rgb(0, 0, 0)" fill-opacity="1.000000" />
<path d="M 17.897949 150.299316 L 17.897949 149.525879 L 23.602051 149.525879 L 23.602051 150.299316 Z " fill="rgb(0, 0, 0)" fill-opacity="1.000000" />
<path d="M 23.897949 150.299316 L 23.897949 149.525879 L 29.602051 149.525879 L 29.602051 150.299316 Z " fill="rgb(0, 0, 0)" fill-opacity="1.000000" />
<path d="M 29.897949 150.299316 L 29.897949 149.525879 L 35.602051 149.525879 L 35.602051 150.299316 Z " fill="rgb(0, 0, 0)" fill-opacity="1.000000" />
<path d="M 35.897949 150.299316 L 35.897949 149.525879 L 41.602051 149.525879 L 41.602051 150.299316 Z " fill="rgb(0, 0, 0)" fill-opacity="1.000000" />
<path d="M 41.897949 150.299316 L 41.897949 149.525879 L 47.602051 149.525879 L 47.602051 150.299316 Z " fill="rgb(0, 0, 0)" fill-opacity="1.000000" />
<path d="M 48.000000 150.299316 L 48.000000 149.525879 L 53.500000 149.525879 L 53.500000 150.299316 L 51.142090 150.299316 L 51.142090 155.944336 L 50.363281 155.944336 L 50.363281 150.299316 Z " fill="rgb(0, 0, 0)" fill-opacity="1.000000" />
<path d="M 53.897949 150.299316 L 53.897949 149.525879 L 59.602051 149.525879 L 59.602051 150.299316 Z " fill="rgb(0, 0, 0)" fill-opacity="1.000000" />
<path d="M 59.897949 150.299316 L 59.897949 149.525879 L 65.602051 149.525879 L 65.602051 150.299316 Z " fill="rgb(0, 0, 0)" fill-opacity="1.000000" />
<path d="M 65.897949 150.299316 L 65.897949 149.525879 L 71.602051 149.525879 L 71.602051 150.299316 Z " fill="rgb(0, 0, 0)" fill-opacity="1.000000" />
<path d="M 71.897949 150.299316 L 71.897949 149.525879 L 77.602051 149.525879 L 77.602051 150.299316 Z " fill="rgb(0, 0, 0)" fill-opacity="1.000000" />
<path d="M 77.897949 150.299316 L 77.897949 149.525879 L 83.602051 149.525879 L 83.602051 150.299316 Z " fill="rgb(0, 0, 0)" fill-opacity="1.000000" />
<path d="M 83.897949 150.299316 L 83.897949 149.525879 L 89.602051 149.525879 L 89.602051 150.299316 Z " fill="rgb(0, 0, 0)" fill-opacity="1.000000" />
<path d="M 89.897949 150.299316 L 89.897949 149.525879 L 95.602051 149.525879 L 95.602051 150.299316 Z " fill="rgb(0, 0, 0)" fill-opacity="1.000000" />
<path d="M 99.142090 150.299316 L 96.000000 150.299316 L 96.000000 149.525879 L 98.363281 149.525879 L 98.363281 143.880859 L 99.142090 143.880859 Z " fill="rgb(0, 0, 0)" fill-opacity="1.000000" />
<path d="M 10.979004 137.637695 Q 10.979004 139.243652 10.245850 140.121826 Q 9.512695 141.000000 8.255859 141.000000 L 6.902344 141.000000 L 6.902344 132.803711 L 8.255859 132.803711 Q 9.512695 132.803711 10.245850 133.630859 Q 10.979004 134.458008 10.979004 136.053223 Z M 10.039062 137.637695 L 10.039062 136.053223 Q 10.039062 134.801758 9.561035 134.192139 Q 9.083008 133.582520 8.255859 133.582520 L 7.810059 133.582520 L 7.810059 140.221191 L 8.255859 140.221191 Q 9.083008 140.221191 9.561035 139.571289 Q 10.039062 138.921387 10.039062 137.637695 Z " fill="rgb(0, 0, 0)" fill-opacity="1.000000" />
<path d="M 15.335449 132.857422 Q 15.335449 133.147461 15.134033 133.354248 Q 14.932617 133.561035 14.631836 133.561035 Q 14.331055 133.561035 14.129639 133.354248 Q 13.928223 133.147461 13.928223 132.857422 Q 13.928223 132.567383 14.129639 132.360596 Q 14.331055 132.153809 14.631836 132.153809 Q 14.932617 132.153809 15.134033 132.360596 Q 15.335449 132.567383 15.335449 132.857422 Z M 16.715820 141.000000 L 12.880859 141.000000 L 12.880859 140.221191 L 14.341797 140.221191 L 14.341797 135.698730 L 13.294434 135.698730 L 13.294434 134.919922 L 15.260254 134.919922 L 15.260254 140.221191 L 16.715820 140.221191 Z " fill="rgb(0, 0, 0)" fill-opacity="1.000000" />
<path d="M 22.345215 133.985352 Q 22.130371 133.523438 21.550293 133.523438 Q 21.168945 133.523438 20.956787 133.767822 Q 20.744629 134.012207 20.744629 134.645996 L 20.744629 135.258301 L 22.791016 135.258301 L 22.791016 136.037109 L 20.744629 136.037109 L 20.744629 141.000000 L 19.826172 141.000000 L 19.826172 136.037109 L 18.805664 136.037109 L 18.805664 135.258301 L 19.826172 135.258301 L 19.826172 134.699707 Q 19.826172 133.663086 20.309570 133.177002 Q 20.792969 132.690918 21.491211 132.690918 Q 22.565430 132.690918 23.032715 133.432129 Z " fill="rgb(0, 0, 0)" fill-opacity="1.000000" />
<path d="M 28.345215 133.985352 Q 28.130371 133.523438 27.550293 133.523438 Q 27.168945 133.523438 26.956787 133.767822 Q 26.744629 134.012207 26.744629 134.645996 L 26.744629 135.258301 L 28.791016 135.258301 L 28.791016 136.037109 L 26.744629 136.037109 L 26.744629 141.000000 L 25.826172 141.000000 L 25.826172 136.037109 L 24.805664 136.037109 L 24.805664 135.258301 L 25.826172 135.258301 L 25.826172 134.699707 Q 25.826172 133.663086 26.309570 133.177002 Q 26.792969 132.690918 27.491211 132.690918 Q 28.565430 132.690918 29.032715 133.432129 Z " fill="rgb(0, 0, 0)" fill-opacity="1.000000" />
<path d="M 33.808105 140.049316 Q 33.808105 140.468262 33.504639 140.785156 Q 33.201172 141.102051 32.744629 141.102051 Q 32.282715 141.102051 31.989990 140.785156 Q 31.697266 140.468262 31.697266 140.049316 Q 31.697266 139.635742 31.989990 139.313477 Q 32.282715 138.991211 32.744629 138.991211 Q 33.201172 138.991211 33.504639 139.316162 Q 33.808105 139.641113 33.808105 140.049316 Z " fill="rgb(0, 0, 0)" fill-opacity="1.000000" />
<path d="M 47.107910 135.945801 L 46.312988 136.300293 Q 46.044434 135.634277 45.405273 135.634277 Q 44.062500 135.634277 44.062500 138.131836 L 44.062500 141.000000 L 43.149414 141.000000 L 43.149414 134.919922 L 44.062500 134.919922 L 44.062500 135.892090 Q 44.604980 134.807129 45.550293 134.807129 Q 46.645996 134.807129 47.107910 135.945801 Z " fill="rgb(0, 0, 0)" fill-opacity="1.000000" />
<path d="M 52.796387 138.142578 L 49.611328 138.142578 L 49.611328 138.325195 Q 49.611328 139.501465 49.957764 139.888184 Q 50.304199 140.274902 50.889648 140.274902 Q 51.641602 140.274902 52.087402 139.517578 L 52.828613 139.990234 Q 52.130371 141.102051 50.830566 141.102051 Q 49.901367 141.102051 49.299805 140.436035 Q 48.698242 139.770020 48.698242 138.325195 L 48.698242 137.589355 Q 48.698242 136.144531 49.299805 135.475830 Q 49.901367 134.807129 50.750000 134.807129 Q 51.652344 134.807129 52.224365 135.424805 Q 52.796387 136.042480 52.796387 137.433594 Z M 51.883301 137.336914 Q 51.883301 136.407715 51.563721 136.020996 Q 51.244141 135.634277 50.750000 135.634277 Q 50.277344 135.634277 49.944336 136.020996 Q 49.611328 136.407715 49.611328 137.336914 Z " fill="rgb(0, 0, 0)" fill-opacity="1.000000" />
<path d="M 58.721191 141.000000 L 57.808105 141.000000 L 57.808105 137.057617 Q 57.808105 136.268066 57.561035 135.959229 Q 57.313965 135.650391 56.884277 135.650391 Q 55.981934 135.650391 55.691895 136.885742 L 55.691895 141.000000 L 54.778809 141.000000 L 54.778809 134.919922 L 55.691895 134.919922 L 55.691895 135.698730 Q 56.277344 134.807129 57.109863 134.807129 Q 57.786621 134.807129 58.253906 135.309326 Q 58.721191 135.811523 58.721191 137.003906 Z " fill="rgb(0, 0, 0)" fill-opacity="1.000000" />
<path d="M 60.623047 137.541016 Q 60.623047 136.085449 61.144043 135.446289 Q 61.665039 134.807129 62.390137 134.807129 Q 63.324707 134.807129 63.802734 135.655762 L 63.802734 132.803711 L 64.715820 132.803711 L 64.715820 141.000000 L 63.802734 141.000000 L 63.802734 140.269531 Q 63.324707 141.102051 62.390137 141.102051 Q 61.665039 141.102051 61.144043 140.468262 Q 60.623047 139.834473 60.623047 138.378906 Z M 61.562988 138.378906 Q 61.562988 139.437012 61.831543 139.855957 Q 62.100098 140.274902 62.615723 140.274902 Q 63.518066 140.274902 63.802734 139.066406 L 63.802734 136.901855 Q 63.523438 135.634277 62.615723 135.634277 Q 62.100098 135.634277 61.831543 136.055908 Q 61.562988 136.477539 61.562988 137.541016 Z " fill="rgb(0, 0, 0)" fill-opacity="1.000000" />
<path d="M 70.796387 138.142578 L 67.611328 138.142578 L 67.611328 138.325195 Q 67.611328 139.501465 67.957764 139.888184 Q 68.304199 140.274902 68.889648 140.274902 Q 69.641602 140.274902 70.087402 139.517578 L 70.828613 139.990234 Q 70.130371 141.102051 68.830566 141.102051 Q 67.901367 141.102051 67.299805 140.436035 Q 66.698242 139.770020 66.698242 138.325195 L 66.698242 137.589355 Q 66.698242 136.144531 67.299805 135.475830 Q 67.901367 134.807129 68.750000 134.807129 Q 69.652344 134.807129 70.224365 135.424805 Q 70.796387 136.042480 70.796387 137.433594 Z M 69.883301 137.336914 Q 69.883301 136.407715 69.563721 136.020996 Q 69.244141 135.634277 68.750000 135.634277 Q 68.277344 135.634277 67.944336 136.020996 Q 67.611328 136.407715 67.611328 137.336914 Z " fill="rgb(0, 0, 0)" fill-opacity="1.000000" />
<path d="M 77.107910 135.945801 L 76.312988 136.300293 Q 76.044434 135.634277 75.405273 135.634277 Q 74.062500 135.634277 74.062500 138.131836 L 74.062500 141.000000 L 73.149414 141.000000 L 73.149414 134.919922 L 74.062500 134.919922 L 74.062500 135.892090 Q 74.604980 134.807129 75.550293 134.807129 Q 76.645996 134.807129 77.107910 135.945801 Z " fill="rgb(0, 0, 0)" fill-opacity="1.000000" />
<path d="M 82.796387 138.142578 L 79.611328 138.142578 L 79.611328 138.325195 Q 79.611328 139.501465 79.957764 139.888184 Q 80.304199 140.274902 80.889648 140.274902 Q 81.641602 140.274902 82.087402 139.517578 L 82.828613 139.990234 Q 82.130371 141.102051 80.830566 141.102051 Q 79.901367 141.102051 79.299805 140.436035 Q 78.698242 139.770020 78.698242 138.325195 L 78.698242 137.589355 Q 78.698242 136.144531 79.299805 135.475830 Q 79.901367 134.807129 80.750000 134.807129 Q 81.652344 134.807129 82.224365 135.424805 Q 82.796387 136.042480 82.796387 137.433594 Z M 81.883301 137.336914 Q 81.883301 136.407715 81.563721 136.020996 Q 81.244141 135.634277 80.750000 135.634277 Q 80.277344 135.634277 79.944336 136.020996 Q 79.611328 136.407715 79.611328 137.336914 Z " fill="rgb(0, 0, 0)" fill-opacity="1.000000" />
<path d="M 89.107910 135.945801 L 88.312988 136.300293 Q 88.044434 135.634277 87.405273 135.634277 Q 86.062500 135.634277 86.062500 138.131836 L 86.062500 141.000000 L 85.149414 141.000000 L 85.149414 134.919922 L 86.062500 134.919922 L 86.062500 135.892090 Q 86.604980 134.807129 87.550293 134.807129 Q 88.645996 134.807129 89.107910 135.945801 Z " fill="rgb(0, 0, 0)" fill-opacity="1.000000" />
<path d="M 99.142090 142.944336 L 98.363281 142.944336 L 98.363281 130.880859 L 99.142090 130.880859 Z " fill="rgb(0, 0, 0)" fill-opacity="1.000000" />
<path d="M 5.897949 124.299316 L 5.897949 123.525879 L 11.602051 123.525879 L 11.602051 124.299316 Z " fill="rgb(0, 0, 0)" fill-opacity="1.000000" />
<path d="M 11.897949 124.299316 L 11.897949 123.525879 L 17.602051 123.525879 L 17.602051 124.299316 Z " fill="rgb(0, 0, 0)" fill-opacity="1.000000" />
<path d="M 17.897949 124.299316 L 17.897949 123.525879 L 23.602051 123.525879 L 23.602051 124.299316 Z " fill="rgb(0, 0, 0)" fill-opacity="1.000000" />
<path d="M 23.897949 124.299316 L 23.897949 123.525879 L 29.602051 123.525879 L 29.602051 124.299316 Z " fill="rgb(0, 0, 0)" fill-opacity="1.000000" />
<path d="M 29.897949 124.299316 L 29.897949 123.525879 L 35.602051 123.525879 L 35.602051 124.299316 Z " fill="rgb(0, 0, 0)" fill-opacity="1.000000" />
<path d="M 35.897949 124.299316 L 35.897949 123.525879 L 41.602051 123.525879 L 41.602051 124.299316 Z " fill="rgb(0, 0, 0)" fill-opacity="1.000000" />
<path d="M 41.897949 124.299316 L 41.897949 123.525879 L 47.602051 123.525879 L 47.602051 124.299316 Z " fill="rgb(0, 0, 0)" fill-opacity="1.000000" />
<path d="M 47.897949 121.748047 L 53.602051 121.748047 L 50.750000 128.075195 Z " fill="rgb(0, 0, 0)" fill-opacity="1.000000" />
<path d="M 53.897949 124.299316 L 53.897949 123.525879 L 59.602051 123.525879 L 59.602051 124.299316 Z " fill="rgb(0, 0, 0)" fill-opacity="1.000000" />
<path d="M 59.897949 124.299316 L 59.897949 123.525879 L 65.602051 123.525879 L 65.602051 124.299316 Z " fill="rgb(0, 0, 0)" fill-opacity="1.000000" />
<path d="M 65.897949 124.299316 L 65.897949 123.525879 L 71.602051 123.525879 L 71.602051 124.299316 Z " fill="rgb(0, 0, 0)" fill-opacity="1.000000" />
<path d="M 71.897949 124.299316 L 71.897949 123.525879 L 77.602051 123.525879 L 77.602051 124.299316 Z " fill="rgb(0, 0, 0)" fill-opacity="1.000000" />
<path d="M 77.897949 124.299316 L 77.897949 123.525879 L 83.602051 123.525879 L 83.602051 124.299316 Z " fill="rgb(0, 0, 0)" fill-opacity="1.000000" />
<path d="M 83.897949 124.299316 L 83.897949 123.525879 L 89.602051 123.525879 L 89.602051 124.299316 Z " fill="rgb(0, 0, 0)" fill-opacity="1.000000" />
<path d="M 89.897949 124.299316 L 89.897949 123.525879 L 95.602051 123.525879 L 95.602051 124.299316 Z " fill="rgb(0, 0, 0)" fill-opacity="1.000000" />
<path d="M 99.142090 129.944336 L 98.363281 129.944336 L 98.363281 124.299316 L 96.000000 124.299316 L 96.000000 123.525879 L 99.142090 123.525879 Z " fill="rgb(0, 0, 0)" fill-opacity="1.000000" />
<path d="M 12.520996 100.753906 L 13.267578 100.254395 Q 13.648926 101.274902 14.680176 101.274902 Q 15.217285 101.274902 15.574463 100.901611 Q 15.931641 100.528320 15.931641 99.583008 Q 15.931641 98.691406 15.510010 98.369141 Q 15.088379 98.046875 14.524414 98.046875 L 14.126953 98.046875 L 14.126953 97.268066 L 14.524414 97.268066 Q 15.002441 97.268066 15.383789 96.927002 Q 15.765137 96.585938 15.765137 95.866211 Q 15.765137 95.162598 15.458984 94.840332 Q 15.152832 94.518066 14.680176 94.518066 Q 13.810059 94.518066 13.428711 95.538574 L 12.682129 95.044434 Q 13.439453 93.685547 14.685547 93.685547 Q 15.571777 93.685547 16.127686 94.281738 Q 16.683594 94.877930 16.683594 95.866211 Q 16.683594 97.187500 15.593262 97.654785 Q 16.850098 98.009277 16.850098 99.583008 Q 16.850098 100.818359 16.237793 101.460205 Q 15.625488 102.102051 14.685547 102.102051 Q 13.278320 102.102051 12.520996 100.753906 Z " fill="rgb(0, 0, 0)" fill-opacity="1.000000" />
<path d="M 51.142090 116.944336 L 50.363281 116.944336 L 50.363281 104.880859 L 51.142090 104.880859 Z " fill="rgb(0, 0, 0)" fill-opacity="1.000000" />
<path d="M 22.979004 98.637695 Q 22.979004 100.243652 22.245850 101.121826 Q 21.512695 102.000000 20.255859 102.000000 L 18.902344 102.000000 L 18.902344 93.803711 L 20.255859 93.803711 Q 21.512695 93.803711 22.245850 94.630859 Q 22.979004 95.458008 22.979004 97.053223 Z M 22.039062 98.637695 L 22.039062 97.053223 Q 22.039062 95.801758 21.561035 95.192139 Q 21.083008 94.582520 20.255859 94.582520 L 19.810059 94.582520 L 19.810059 101.221191 L 20.255859 101.221191 Q 21.083008 101.221191 21.561035 100.571289 Q 22.039062 99.921387 22.039062 98.637695 Z " fill="rgb(0, 0, 0)" fill-opacity="1.000000" />
<path d="M 34.801758 99.513184 Q 34.801758 100.855957 34.216309 101.479004 Q 33.630859 102.102051 32.750000 102.102051 Q 31.869141 102.102051 31.297119 101.479004 Q 30.725098 100.855957 30.725098 99.513184 L 30.725098 96.279785 Q 30.725098 94.931641 31.299805 94.308594 Q 31.874512 93.685547 32.809082 93.685547 Q 34.055176 93.685547 34.715820 95.017578 L 33.969238 95.468750 Q 33.561035 94.518066 32.814453 94.518066 Q 32.255859 94.518066 31.947021 94.891357 Q 31.638184 95.264648 31.638184 96.279785 L 31.638184 99.513184 Q 31.638184 100.528320 31.933594 100.901611 Q 32.229004 101.274902 32.750000 101.274902 Q 33.260254 101.274902 33.574463 100.898926 Q 33.888672 100.522949 33.888672 99.513184 L 33.888672 98.395996 L 32.916504 98.395996 L 32.916504 97.617188 L 34.801758 97.617188 Z " fill="rgb(0, 0, 0)" fill-opacity="1.000000" />
<path d="M 40.586914 102.000000 L 39.673828 102.000000 L 39.673828 101.312500 Q 39.093750 102.102051 38.207520 102.102051 Q 37.460938 102.102051 37.001709 101.591797 Q 36.542480 101.081543 36.542480 100.308105 Q 36.542480 99.513184 37.117188 98.976074 Q 37.691895 98.438965 38.803711 98.438965 L 39.673828 98.438965 L 39.673828 97.783691 Q 39.673828 96.634277 38.583496 96.634277 Q 37.777832 96.634277 37.380371 97.343262 L 36.687500 96.827637 Q 37.407227 95.807129 38.588867 95.807129 Q 39.464355 95.807129 40.025635 96.306641 Q 40.586914 96.806152 40.586914 97.783691 Z M 39.673828 100.571289 L 39.673828 99.174805 L 38.803711 99.174805 Q 38.148438 99.174805 37.815430 99.480957 Q 37.482422 99.787109 37.482422 100.308105 Q 37.482422 101.274902 38.433105 101.274902 Q 39.179688 101.274902 39.673828 100.571289 Z " fill="rgb(0, 0, 0)" fill-opacity="1.000000" />
<path d="M 46.721191 102.000000 L 45.808105 102.000000 L 45.808105 101.210449 Q 45.222656 102.102051 44.390137 102.102051 Q 43.713379 102.102051 43.246094 101.591797 Q 42.778809 101.081543 42.778809 99.760254 L 42.778809 95.919922 L 43.691895 95.919922 L 43.691895 99.760254 Q 43.691895 100.646484 43.938965 100.960693 Q 44.186035 101.274902 44.615723 101.274902 Q 45.518066 101.274902 45.808105 100.087891 L 45.808105 95.919922 L 46.721191 95.919922 Z " fill="rgb(0, 0, 0)" fill-opacity="1.000000" />
<path d="M 50.771484 101.296387 Q 51.340820 101.296387 51.633545 101.025146 Q 51.926270 100.753906 51.926270 100.367188 Q 51.926270 99.835449 51.276367 99.540039 L 50.105469 99.002930 Q 49.015137 98.487305 49.015137 97.531250 Q 49.015137 96.784668 49.552246 96.295898 Q 50.089355 95.807129 50.937988 95.807129 Q 52.157227 95.807129 52.807129 96.929688 L 52.060547 97.380859 Q 51.722168 96.618164 50.937988 96.618164 Q 50.470703 96.618164 50.199463 96.854492 Q 49.928223 97.090820 49.928223 97.439941 Q 49.928223 97.907227 50.535156 98.197266 L 51.641602 98.712891 Q 52.839355 99.266113 52.839355 100.410156 Q 52.839355 101.086914 52.280762 101.594482 Q 51.722168 102.102051 50.760742 102.102051 Q 49.417969 102.102051 48.660645 100.861328 L 49.412598 100.404785 Q 49.858398 101.296387 50.771484 101.296387 Z " fill="rgb(0, 0, 0)" fill-opacity="1.000000" />
<path d="M 56.771484 101.296387 Q 57.340820 101.296387 57.633545 101.025146 Q 57.926270 100.753906 57.926270 100.367188 Q 57.926270 99.835449 57.276367 99.540039 L 56.105469 99.002930 Q 55.015137 98.487305 55.015137 97.531250 Q 55.015137 96.784668 55.552246 96.295898 Q 56.089355 95.807129 56.937988 95.807129 Q 58.157227 95.807129 58.807129 96.929688 L 58.060547 97.380859 Q 57.722168 96.618164 56.937988 96.618164 Q 56.470703 96.618164 56.199463 96.854492 Q 55.928223 97.090820 55.928223 97.439941 Q 55.928223 97.907227 56.535156 98.197266 L 57.641602 98.712891 Q 58.839355 99.266113 58.839355 100.410156 Q 58.839355 101.086914 58.280762 101.594482 Q 57.722168 102.102051 56.760742 102.102051 Q 55.417969 102.102051 54.660645 100.861328 L 55.412598 100.404785 Q 55.858398 101.296387 56.771484 101.296387 Z " fill="rgb(0, 0, 0)" fill-opacity="1.000000" />
<path d="M 63.335449 93.857422 Q 63.335449 94.147461 63.134033 94.354248 Q 62.932617 94.561035 62.631836 94.561035 Q 62.331055 94.561035 62.129639 94.354248 Q 61.928223 94.147461 61.928223 93.857422 Q 61.928223 93.567383 62.129639 93.360596 Q 62.331055 93.153809 62.631836 93.153809 Q 62.932617 93.153809 63.134033 93.360596 Q 63.335449 93.567383 63.335449 93.857422 Z M 64.715820 102.000000 L 60.880859 102.000000 L 60.880859 101.221191 L 62.341797 101.221191 L 62.341797 96.698730 L 61.294434 96.698730 L 61.294434 95.919922 L 63.260254 95.919922 L 63.260254 101.221191 L 64.715820 101.221191 Z " fill="rgb(0, 0, 0)" fill-opacity="1.000000" />
<path d="M 70.586914 102.000000 L 69.673828 102.000000 L 69.673828 101.312500 Q 69.093750 102.102051 68.207520 102.102051 Q 67.460938 102.102051 67.001709 101.591797 Q 66.542480 101.081543 66.542480 100.308105 Q 66.542480 99.513184 67.117188 98.976074 Q 67.691895 98.438965 68.803711 98.438965 L 69.673828 98.438965 L 69.673828 97.783691 Q 69.673828 96.634277 68.583496 96.634277 Q 67.777832 96.634277 67.380371 97.343262 L 66.687500 96.827637 Q 67.407227 95.807129 68.588867 95.807129 Q 69.464355 95.807129 70.025635 96.306641 Q 70.586914 96.806152 70.586914 97.783691 Z M 69.673828 100.571289 L 69.673828 99.174805 L 68.803711 99.174805 Q 68.148438 99.174805 67.815430 99.480957 Q 67.482422 99.787109 67.482422 100.308105 Q 67.482422 101.274902 68.433105 101.274902 Q 69.179688 101.274902 69.673828 100.571289 Z " fill="rgb(0, 0, 0)" fill-opacity="1.000000" />
<path d="M 76.721191 102.000000 L 75.808105 102.000000 L 75.808105 98.057617 Q 75.808105 97.268066 75.561035 96.959229 Q 75.313965 96.650391 74.884277 96.650391 Q 73.981934 96.650391 73.691895 97.885742 L 73.691895 102.000000 L 72.778809 102.000000 L 72.778809 95.919922 L 73.691895 95.919922 L 73.691895 96.698730 Q 74.277344 95.807129 75.109863 95.807129 Q 75.786621 95.807129 76.253906 96.309326 Q 76.721191 96.811523 76.721191 98.003906 Z " fill="rgb(0, 0, 0)" fill-opacity="1.000000" />
<path d="M 80.771484 101.296387 Q 81.340820 101.296387 81.633545 101.025146 Q 81.926270 100.753906 81.926270 100.367188 Q 81.926270 99.835449 81.276367 99.540039 L 80.105469 99.002930 Q 79.015137 98.487305 79.015137 97.531250 Q 79.015137 96.784668 79.552246 96.295898 Q 80.089355 95.807129 80.937988 95.807129 Q 82.157227 95.807129 82.807129 96.929688 L 82.060547 97.380859 Q 81.722168 96.618164 80.937988 96.618164 Q 80.470703 96.618164 80.199463 96.854492 Q 79.928223 97.090820 79.928223 97.439941 Q 79.928223 97.907227 80.535156 98.197266 L 81.641602 98.712891 Q 82.839355 99.266113 82.839355 100.410156 Q 82.839355 101.086914 82.280762 101.594482 Q 81.722168 102.102051 80.760742 102.102051 Q 79.417969 102.102051 78.660645 100.861328 L 79.412598 100.404785 Q 79.858398 101.296387 80.771484 101.296387 Z " fill="rgb(0, 0, 0)" fill-opacity="1.000000" />
<path d="M 47.897949 82.748047 L 53.602051 82.748047 L 50.750000 89.075195 Z " fill="rgb(0, 0, 0)" fill-opacity="1.000000" />
<path d="M 5.897949 72.299316 L 5.897949 71.525879 L 11.602051 71.525879 L 11.602051 72.299316 Z " fill="rgb(0, 0, 0)" fill-opacity="1.000000" />
<path d="M 11.897949 72.299316 L 11.897949 71.525879 L 17.602051 71.525879 L 17.602051 72.299316 Z " fill="rgb(0, 0, 0)" fill-opacity="1.000000" />
<path d="M 17.897949 72.299316 L 17.897949 71.525879 L 23.602051 71.525879 L 23.602051 72.299316 Z " fill="rgb(0, 0, 0)" fill-opacity="1.000000" />
<path d="M 23.897949 72.299316 L 23.897949 71.525879 L 29.602051 71.525879 L 29.602051 72.299316 Z " fill="rgb(0, 0, 0)" fill-opacity="1.000000" />
<path d="M 29.897949 72.299316 L 29.897949 71.525879 L 35.602051 71.525879 L 35.602051 72.299316 Z " fill="rgb(0, 0, 0)" fill-opacity="1.000000" />
<path d="M 35.897949 72.299316 L 35.897949 71.525879 L 41.602051 71.525879 L 41.602051 72.299316 Z " fill="rgb(0, 0, 0)" fill-opacity="1.000000" />
<path d="M 41.897949 72.299316 L 41.897949 71.525879 L 47.602051 71.525879 L 47.602051 72.299316 Z " fill="rgb(0, 0, 0)" fill-opacity="1.000000" />
<path d="M 48.000000 72.299316 L 48.000000 71.525879 L 53.500000 71.525879 L 53.500000 72.299316 L 51.142090 72.299316 L 51.142090 77.944336 L 50.363281 77.944336 L 50.363281 72.299316 Z " fill="rgb(0, 0, 0)" fill-opacity="1.000000" />
<path d="M 53.897949 72.299316 L 53.897949 71.525879 L 59.602051 71.525879 L 59.602051 72.299316 Z " fill="rgb(0, 0, 0)" fill-opacity="1.000000" />
<path d="M 59.897949 72.299316 L 59.897949 71.525879 L 65.602051 71.525879 L 65.602051 72.299316 Z " fill="rgb(0, 0, 0)" fill-opacity="1.000000" />
<path d="M 65.897949 72.299316 L 65.897949 71.525879 L 71.602051 71.525879 L 71.602051 72.299316 Z " fill="rgb(0, 0, 0)" fill-opacity="1.000000" />
<path d="M 71.897949 72.299316 L 71.897949 71.525879 L 77.602051 71.525879 L 77.602051 72.299316 Z " fill="rgb(0, 0, 0)" fill-opacity="1.000000" />
<path d="M 77.897949 72.299316 L 77.897949 71.525879 L 83.602051 71.525879 L 83.602051 72.299316 Z " fill="rgb(0, 0, 0)" fill-opacity="1.000000" />
<path d="M 83.897949 72.299316 L 83.897949 71.525879 L 89.602051 71.525879 L 89.602051 72.299316 Z " fill="rgb(0, 0, 0)" fill-opacity="1.000000" />
<path d="M 89.897949 72.299316 L 89.897949 71.525879 L 95.602051 71.525879 L 95.602051 72.299316 Z " fill="rgb(0, 0, 0)" fill-opacity="1.000000" />
<path d="M 99.142090 72.299316 L 96.000000 72.299316 L 96.000000 71.525879 L 98.363281 71.525879 L 98.363281 65.880859 L 99.142090 65.880859 Z " fill="rgb(0, 0, 0)" fill-opacity="1.000000" />
<path d="M 40.844727 63.000000 L 39.931641 63.000000 L 39.931641 60.835449 Q 39.931641 58.762207 40.092773 55.974609 L 39.034668 59.369141 L 38.465332 59.369141 L 37.407227 55.974609 Q 37.568359 58.762207 37.568359 60.835449 L 37.568359 63.000000 L 36.655273 63.000000 L 36.655273 54.803711 L 37.568359 54.803711 L 38.750000 58.208984 L 39.931641 54.803711 L 40.844727 54.803711 Z " fill="rgb(0, 0, 0)" fill-opacity="1.000000" />
<path d="M 46.801758 60.368164 Q 46.801758 61.764648 46.227051 62.433350 Q 45.652344 63.102051 44.750000 63.102051 Q 43.847656 63.102051 43.275635 62.433350 Q 42.703613 61.764648 42.703613 60.368164 L 42.703613 59.541016 Q 42.703613 58.144531 43.275635 57.475830 Q 43.847656 56.807129 44.750000 56.807129 Q 45.652344 56.807129 46.227051 57.475830 Q 46.801758 58.144531 46.801758 59.541016 Z M 45.888672 60.368164 L 45.888672 59.541016 Q 45.888672 58.461426 45.569092 58.047852 Q 45.249512 57.634277 44.750000 57.634277 Q 44.250488 57.634277 43.933594 58.047852 Q 43.616699 58.461426 43.616699 59.541016 L 43.616699 60.368164 Q 43.616699 61.447754 43.933594 61.861328 Q 44.250488 62.274902 44.750000 62.274902 Q 45.249512 62.274902 45.569092 61.861328 Q 45.888672 61.447754 45.888672 60.368164 Z " fill="rgb(0, 0, 0)" fill-opacity="1.000000" />
<path d="M 48.623047 59.541016 Q 48.623047 58.085449 49.144043 57.446289 Q 49.665039 56.807129 50.390137 56.807129 Q 51.324707 56.807129 51.802734 57.655762 L 51.802734 54.803711 L 52.715820 54.803711 L 52.715820 63.000000 L 51.802734 63.000000 L 51.802734 62.269531 Q 51.324707 63.102051 50.390137 63.102051 Q 49.665039 63.102051 49.144043 62.468262 Q 48.623047 61.834473 48.623047 60.378906 Z M 49.562988 60.378906 Q 49.562988 61.437012 49.831543 61.855957 Q 50.100098 62.274902 50.615723 62.274902 Q 51.518066 62.274902 51.802734 61.066406 L 51.802734 58.901855 Q 51.523438 57.634277 50.615723 57.634277 Q 50.100098 57.634277 49.831543 58.055908 Q 49.562988 58.477539 49.562988 59.541016 Z " fill="rgb(0, 0, 0)" fill-opacity="1.000000" />
<path d="M 58.796387 60.142578 L 55.611328 60.142578 L 55.611328 60.325195 Q 55.611328 61.501465 55.957764 61.888184 Q 56.304199 62.274902 56.889648 62.274902 Q 57.641602 62.274902 58.087402 61.517578 L 58.828613 61.990234 Q 58.130371 63.102051 56.830566 63.102051 Q 55.901367 63.102051 55.299805 62.436035 Q 54.698242 61.770020 54.698242 60.325195 L 54.698242 59.589355 Q 54.698242 58.144531 55.299805 57.475830 Q 55.901367 56.807129 56.750000 56.807129 Q 57.652344 56.807129 58.224365 57.424805 Q 58.796387 58.042480 58.796387 59.433594 Z M 57.883301 59.336914 Q 57.883301 58.407715 57.563721 58.020996 Q 57.244141 57.634277 56.750000 57.634277 Q 56.277344 57.634277 55.944336 58.020996 Q 55.611328 58.407715 55.611328 59.336914 Z " fill="rgb(0, 0, 0)" fill-opacity="1.000000" />
<path d="M 64.774902 63.000000 L 62.857422 63.000000 Q 62.078613 63.000000 62.078613 62.221191 L 62.078613 55.582520 L 60.553223 55.582520 L 60.553223 54.803711 L 62.997070 54.803711 L 62.997070 62.221191 L 64.774902 62.221191 Z " fill="rgb(0, 0, 0)" fill-opacity="1.000000" />
<path d="M 99.142090 64.944336 L 98.363281 64.944336 L 98.363281 52.880859 L 99.142090 52.880859 Z " fill="rgb(0, 0, 0)" fill-opacity="1.000000" />
<path d="M 5.897949 46.299316 L 5.897949 45.525879 L 11.602051 45.525879 L 11.602051 46.299316 Z " fill="rgb(0, 0, 0)" fill-opacity="1.000000" />
<path d="M 11.897949 46.299316 L 11.897949 45.525879 L 17.602051 45.525879 L 17.602051 46.299316 Z " fill="rgb(0, 0, 0)" fill-opacity="1.000000" />
<path d="M 17.897949 46.299316 L 17.897949 45.525879 L 23.602051 45.525879 L 23.602051 46.299316 Z " fill="rgb(0, 0, 0)" fill-opacity="1.000000" />
<path d="M 23.897949 46.299316 L 23.897949 45.525879 L 29.602051 45.525879 L 29.602051 46.299316 Z " fill="rgb(0, 0, 0)" fill-opacity="1.000000" />
<path d="M 29.897949 46.299316 L 29.897949 45.525879 L 35.602051 45.525879 L 35.602051 46.299316 Z " fill="rgb(0, 0, 0)" fill-opacity="1.000000" />
<path d="M 35.897949 46.299316 L 35.897949 45.525879 L 41.602051 45.525879 L 41.602051 46.299316 Z " fill="rgb(0, 0, 0)" fill-opacity="1.000000" />
<path d="M 41.897949 46.299316 L 41.897949 45.525879 L 47.602051 45.525879 L 47.602051 46.299316 Z " fill="rgb(0, 0, 0)" fill-opacity="1.000000" />
<path d="M 47.897949 43.748047 L 53.602051 43.748047 L 50.750000 50.075195 Z " fill="rgb(0, 0, 0)" fill-opacity="1.000000" />
<path d="M 53.897949 46.299316 L 53.897949 45.525879 L 59.602051 45.525879 L 59.602051 46.299316 Z " fill="rgb(0, 0, 0)" fill-opacity="1.000000" />
<path d="M 59.897949 46.299316 L 59.897949 45.525879 L 65.602051 45.525879 L 65.602051 46.299316 Z " fill="rgb(0, 0, 0)" fill-opacity="1.000000" />
<path d="M 65.897949 46.299316 L 65.897949 45.525879 L 71.602051 45.525879 L 71.602051 46.299316 Z " fill="rgb(0, 0, 0)" fill-opacity="1.000000" />
<path d="M 71.897949 46.299316 L 71.897949 45.525879 L 77.602051 45.525879 L 77.602051 46.299316 Z " fill="rgb(0, 0, 0)" fill-opacity="1.000000" />
<path d="M 77.897949 46.299316 L 77.897949 45.525879 L 83.602051 45.525879 L 83.602051 46.299316 Z " fill="rgb(0, 0, 0)" fill-opacity="1.000000" />
<path d="M 83.897949 46.299316 L 83.897949 45.525879 L 89.602051 45.525879 L 89.602051 46.299316 Z " fill="rgb(0, 0, 0)" fill-opacity="1.000000" />
<path d="M 89.897949 46.299316 L 89.897949 45.525879 L 95.602051 45.525879 L 95.602051 46.299316 Z " fill="rgb(0, 0, 0)" fill-opacity="1.000000" />
<path d="M 99.142090 51.944336 L 98.363281 51.944336 L 98.363281 46.299316 L 96.000000 46.299316 L 96.000000 45.525879 L 99.142090 45.525879 Z " fill="rgb(0, 0, 0)" fill-opacity="1.000000" />
<path d="M 22.500977 24.000000 L 18.993652 24.000000 L 18.993652 23.221191 L 20.288086 23.221191 L 20.288086 16.582520 L 19.272949 16.582520 L 19.272949 15.803711 L 22.221680 15.803711 L 22.221680 16.582520 L 21.206543 16.582520 L 21.206543 23.221191 L 22.500977 23.221191 Z " fill="rgb(0, 0, 0)" fill-opacity="1.000000" />
<path d="M 51.142090 38.944336 L 50.363281 38.944336 L 50.363281 26.880859 L 51.142090 26.880859 Z " fill="rgb(0, 0, 0)" fill-opacity="1.000000" />
<path d="M 28.721191 24.000000 L 27.808105 24.000000 L 27.808105 20.057617 Q 27.808105 19.268066 27.561035 18.959229 Q 27.313965 18.650391 26.884277 18.650391 Q 25.981934 18.650391 25.691895 19.885742 L 25.691895 24.000000 L 24.778809 24.000000 L 24.778809 17.919922 L 25.691895 17.919922 L 25.691895 18.698730 Q 26.277344 17.807129 27.109863 17.807129 Q 27.786621 17.807129 28.253906 18.309326 Q 28.721191 18.811523 28.721191 20.003906 Z " fill="rgb(0, 0, 0)" fill-opacity="1.000000" />
<path d="M 34.876953 21.384277 Q 34.876953 22.823730 34.329102 23.462891 Q 33.781250 24.102051 33.109863 24.102051 Q 32.175293 24.102051 31.697266 23.253418 L 31.697266 25.895996 L 30.784180 25.895996 L 30.784180 17.919922 L 31.697266 17.919922 L 31.697266 18.639648 Q 32.175293 17.807129 33.109863 17.807129 Q 33.781250 17.807129 34.329102 18.440918 Q 34.876953 19.074707 34.876953 20.541016 Z M 33.937012 20.541016 Q 33.937012 19.472168 33.641602 19.053223 Q 33.346191 18.634277 32.884277 18.634277 Q 31.981934 18.634277 31.697266 19.885742 L 31.697266 22.018066 Q 31.976562 23.274902 32.884277 23.274902 Q 33.346191 23.274902 33.641602 22.853271 Q 33.937012 22.431641 33.937012 21.384277 Z " fill="rgb(0, 0, 0)" fill-opacity="1.000000" />
<path d="M 40.721191 24.000000 L 39.808105 24.000000 L 39.808105 23.210449 Q 39.222656 24.102051 38.390137 24.102051 Q 37.713379 24.102051 37.246094 23.591797 Q 36.778809 23.081543 36.778809 21.760254 L 36.778809 17.919922 L 37.691895 17.919922 L 37.691895 21.760254 Q 37.691895 22.646484 37.938965 22.960693 Q 38.186035 23.274902 38.615723 23.274902 Q 39.518066 23.274902 39.808105 22.087891 L 39.808105 17.919922 L 40.721191 17.919922 Z " fill="rgb(0, 0, 0)" fill-opacity="1.000000" />
<path d="M 47.086426 23.151367 Q 46.447266 24.102051 45.378418 24.102051 Q 44.669434 24.102051 44.188721 23.621338 Q 43.708008 23.140625 43.708008 22.200684 L 43.708008 18.698730 L 42.687500 18.698730 L 42.687500 17.919922 L 43.708008 17.919922 L 43.708008 15.803711 L 44.621094 15.803711 L 44.621094 17.919922 L 46.672852 17.919922 L 46.672852 18.698730 L 44.621094 18.698730 L 44.621094 22.259766 Q 44.621094 22.759277 44.835938 23.017090 Q 45.050781 23.274902 45.432129 23.274902 Q 46.065918 23.274902 46.393555 22.646484 Z " fill="rgb(0, 0, 0)" fill-opacity="1.000000" />
<path d="M 57.276367 24.000000 L 56.223633 24.000000 L 55.170898 20.820312 Q 54.628418 19.187500 54.574707 18.354980 L 54.547852 17.919922 L 55.460938 17.919922 L 55.487793 18.354980 Q 55.536133 19.144531 56.008789 20.691406 L 56.750000 23.140625 L 57.491211 20.691406 Q 57.963867 19.144531 58.012207 18.354980 L 58.039062 17.919922 L 58.952148 17.919922 L 58.925293 18.354980 Q 58.871582 19.187500 58.329102 20.820312 Z " fill="rgb(0, 0, 0)" fill-opacity="1.000000" />
<path d="M 63.335449 15.857422 Q 63.335449 16.147461 63.134033 16.354248 Q 62.932617 16.561035 62.631836 16.561035 Q 62.331055 16.561035 62.129639 16.354248 Q 61.928223 16.147461 61.928223 15.857422 Q 61.928223 15.567383 62.129639 15.360596 Q 62.331055 15.153809 62.631836 15.153809 Q 62.932617 15.153809 63.134033 15.360596 Q 63.335449 15.567383 63.335449 15.857422 Z M 64.715820 24.000000 L 60.880859 24.000000 L 60.880859 23.221191 L 62.341797 23.221191 L 62.341797 18.698730 L 61.294434 18.698730 L 61.294434 17.919922 L 63.260254 17.919922 L 63.260254 23.221191 L 64.715820 23.221191 Z " fill="rgb(0, 0, 0)" fill-opacity="1.000000" />
<path d="M 70.796387 21.142578 L 67.611328 21.142578 L 67.611328 21.325195 Q 67.611328 22.501465 67.957764 22.888184 Q 68.304199 23.274902 68.889648 23.274902 Q 69.641602 23.274902 70.087402 22.517578 L 70.828613 22.990234 Q 70.130371 24.102051 68.830566 24.102051 Q 67.901367 24.102051 67.299805 23.436035 Q 66.698242 22.770020 66.698242 21.325195 L 66.698242 20.589355 Q 66.698242 19.144531 67.299805 18.475830 Q 67.901367 17.807129 68.750000 17.807129 Q 69.652344 17.807129 70.224365 18.424805 Q 70.796387 19.042480 70.796387 20.433594 Z M 69.883301 20.336914 Q 69.883301 19.407715 69.563721 19.020996 Q 69.244141 18.634277 68.750000 18.634277 Q 68.277344 18.634277 67.944336 19.020996 Q 67.611328 19.407715 67.611328 20.336914 Z " fill="rgb(0, 0, 0)" fill-opacity="1.000000" />
<path d="M 75.765137 23.495117 L 75.979980 21.523926 Q 76.114258 20.293945 76.114258 19.004883 L 76.114258 17.919922 L 77.005859 17.919922 L 77.005859 18.725586 Q 77.005859 19.826660 76.694336 21.523926 L 76.243164 24.000000 L 75.383789 24.000000 L 74.750000 21.260742 L 74.116211 24.000000 L 73.256836 24.000000 L 72.805664 21.523926 Q 72.494141 19.826660 72.494141 18.725586 L 72.494141 17.919922 L 73.385742 17.919922 L 73.385742 19.004883 Q 73.385742 20.293945 73.520020 21.523926 L 73.734863 23.495117 L 74.459961 20.369141 L 75.040039 20.369141 Z " fill="rgb(0, 0, 0)" fill-opacity="1.000000" />
</svg>